<?xml version="1.0" encoding="UTF-8" standalone="yes"?>
<!DOCTYPE svg PUBLIC "-//W3C//DTD SVG 1.0//EN" "http://www.w3.org/TR/2001/REC-SVG-20010904/DTD/svg10.dtd">
<svg height="183" width="166" xmlns="http://www.w3.org/2000/svg" xmlns:svg="http://www.w3.org/2000/svg" xmlns:xlink="http://www.w3.org/1999/xlink"><g id="layer" style="fill: rgb(0,0,0)"><g id="qrcode"><rect height="6" width="42" x="8" y="8" /><rect height="24" width="6" x="56" y="8" /><rect height="6" width="6" x="74" y="8" /><rect height="6" width="18" x="92" y="8" /><rect height="6" width="42" x="116" y="8" /><rect height="36" width="6" x="8" y="14" /><rect height="36" width="6" x="44" y="14" /><rect height="6" width="6" x="68" y="14" /><rect height="6" width="18" x="80" y="14" /><rect height="6" width="6" x="104" y="14" /><rect height="36" width="6" x="116" y="14" /><rect height="36" width="6" x="152" y="14" /><rect height="18" width="18" x="20" y="20" /><rect height="6" width="6" x="62" y="20" /><rect height="12" width="6" x="92" y="20" /><rect height="18" width="18" x="128" y="20" /><rect height="6" width="18" x="74" y="26" /><rect height="12" width="12" x="98" y="26" /><rect height="6" width="12" x="68" y="32" /><rect height="12" width="6" x="86" y="32" /><rect height="6" width="12" x="56" y="38" /><rect height="48" width="6" x="80" y="38" /><rect height="6" width="30" x="14" y="44" /><rect height="6" width="6" x="56" y="44" /><rect height="6" width="6" x="68" y="44" /><rect height="6" width="6" x="92" y="44" /><rect height="6" width="6" x="104" y="44" /><rect height="6" width="30" x="122" y="44" /><rect height="6" width="6" x="62" y="50" /><rect height="12" width="12" x="8" y="56" /><rect height="6" width="18" x="32" y="56" /><rect height="24" width="6" x="74" y="56" /><rect height="54" width="6" x="98" y="56" /><rect height="6" width="6" x="122" y="56" /><rect height="6" width="24" x="134" y="56" /><rect height="6" width="12" x="26" y="62" /><rect height="18" width="6" x="50" y="62" /><rect height="6" width="6" x="62" y="62" /><rect height="6" width="6" x="92" y="62" /><rect height="6" width="12" x="128" y="62" /><rect height="6" width="6" x="146" y="62" /><rect height="6" width="6" x="14" y="68" /><rect height="6" width="18" x="32" y="68" /><rect height="6" width="12" x="116" y="68" /><rect height="6" width="12" x="134" y="68" /><rect height="18" width="6" x="8" y="74" /><rect height="6" width="12" x="20" y="74" /><rect height="24" width="6" x="38" y="74" /><rect height="6" width="6" x="56" y="74" /><rect height="12" width="6" x="68" y="74" /><rect height="12" width="6" x="110" y="74" /><rect height="12" width="6" x="122" y="74" /><rect height="6" width="12" x="140" y="74" /><rect height="30" width="6" x="20" y="80" /><rect height="6" width="6" x="44" y="80" /><rect height="6" width="6" x="116" y="80" /><rect height="6" width="24" x="134" y="80" /><rect height="12" width="6" x="32" y="86" /><rect height="6" width="6" x="50" y="86" /><rect height="6" width="6" x="62" y="86" /><rect height="12" width="6" x="74" y="86" /><rect height="6" width="6" x="86" y="86" /><rect height="6" width="6" x="104" y="86" /><rect height="48" width="6" x="128" y="86" /><rect height="6" width="6" x="146" y="86" /><rect height="6" width="6" x="44" y="92" /><rect height="42" width="6" x="80" y="92" /><rect height="12" width="6" x="92" y="92" /><rect height="6" width="12" x="116" y="92" /><rect height="6" width="12" x="134" y="92" /><rect height="6" width="6" x="50" y="98" /><rect height="6" width="12" x="62" y="98" /><rect height="12" width="6" x="110" y="98" /><rect height="12" width="6" x="122" y="98" /><rect height="6" width="12" x="140" y="98" /><rect height="6" width="12" x="8" y="104" /><rect height="6" width="6" x="26" y="104" /><rect height="6" width="6" x="44" y="104" /><rect height="6" width="12" x="56" y="104" /><rect height="18" width="6" x="74" y="104" /><rect height="36" width="6" x="104" y="104" /><rect height="6" width="6" x="116" y="104" /><rect height="6" width="12" x="134" y="104" /><rect height="6" width="6" x="56" y="110" /><rect height="6" width="12" x="86" y="110" /><rect height="6" width="42" x="8" y="116" /><rect height="6" width="6" x="68" y="116" /><rect height="6" width="6" x="86" y="116" /><rect height="6" width="6" x="116" y="116" /><rect height="36" width="6" x="8" y="122" /><rect height="36" width="6" x="44" y="122" /><rect height="12" width="6" x="56" y="122" /><rect height="6" width="6" x="98" y="122" /><rect height="6" width="12" x="134" y="122" /><rect height="6" width="6" x="152" y="122" /><rect height="18" width="18" x="20" y="128" /><rect height="6" width="12" x="68" y="128" /><rect height="18" width="6" x="92" y="128" /><rect height="12" width="18" x="110" y="128" /><rect height="6" width="18" x="134" y="128" /><rect height="6" width="6" x="62" y="134" /><rect height="24" width="6" x="74" y="134" /><rect height="6" width="18" x="140" y="134" /><rect height="6" width="6" x="68" y="140" /><rect height="6" width="12" x="80" y="140" /><rect height="6" width="12" x="110" y="140" /><rect height="12" width="6" x="134" y="140" /><rect height="18" width="6" x="146" y="140" /><rect height="12" width="6" x="56" y="146" /><rect height="12" width="6" x="98" y="146" /><rect height="6" width="18" x="116" y="146" /><rect height="12" width="6" x="140" y="146" /><rect height="6" width="30" x="14" y="152" /><rect height="6" width="6" x="62" y="152" /><rect height="6" width="6" x="80" y="152" /><rect height="6" width="6" x="110" y="152" /><rect height="6" width="6" x="152" y="152" /></g><g id="caption" style="font-family: sans-serif; font-size: 14px; text-anchor: middle"><a xlink:href="https://ellon-m.github.io/e.res"><text x="83" y="175">ellon-m.github.io/e.res</text></a></g></g><!--Generated using the Perl SVG Module V2.86by Ronan OgerInfo: http://www.roitsystems.com/-->
</svg>